# xmcd CD database file
#
# Track frame offsets:
#	150
#	16590
#	30617
#	41530
#	55359
#	69257
#	91570
#	104041
#	116407
#	131751
#	148120
#	160515
#	173873
#	195441
#	212816
#	226680
#	240008
#	256524
#	267923
#	294191
#	314444
#	332582
#	342893
#
# Disc length: 4760 seconds
#
# Revision: 1
# Processed by: cddbd v1.5.1PL0 Copyright (c) Steve Scherf et al.
# Submitted via: CDex 1.51
#
DISCID=2a129617
DTITLE=Louis Armstrong - The Best
DYEAR=1900
DGENRE=Blues
TTITLE0=Go down Moses
TTITLE1=Kiss of fire
TTITLE2=Hello Dolly
TTITLE3=C'est si bon
TTITLE4=Some of these days
TTITLE5=Skokiaan
TTITLE6=Shadrack
TTITLE7=Ramona
TTITLE8=La vie en rose
TTITLE9=When the saints go marching in
TTITLE10=Cabaret
TTITLE11=Moon river
TTITLE12=St.James Infirmary
TTITLE13=Basin street blues
TTITLE14=Georgia on my mind
TTITLE15=Rock my soul
TTITLE16=Everybody love my baby
TTITLE17=Gone fishin'
TTITLE18=On the sunny side of the street
TTITLE19=A kiss to build dream on
TTITLE20=Back ole town blues
TTITLE21=What a wonderful world
TTITLE22=Down by the riverside
EXTD=
EXTT0=
EXTT1=
EXTT2=
EXTT3=
EXTT4=
EXTT5=
EXTT6=
EXTT7=
EXTT8=
EXTT9=
EXTT10=
EXTT11=
EXTT12=
EXTT13=
EXTT14=
EXTT15=
EXTT16=
EXTT17=
EXTT18=
EXTT19=
EXTT20=
EXTT21=
EXTT22=
PLAYORDER=
